<?xml version="1.0" encoding="utf-8"?>
<!-- Generator: Adobe Illustrator 22.0.0, SVG Export Plug-In . SVG Version: 6.00 Build 0)  -->
<svg version="1.1" id="Layer_1" xmlns="http://www.w3.org/2000/svg" xmlns:xlink="http://www.w3.org/1999/xlink" x="0px" y="0px"
	 viewBox="0 0 92.5757 81.94739" style="enable-background:new 0 0 92.5757 81.94739;" xml:space="preserve">
<style type="text/css">
	.st0{fill:#FFFFFF;}
</style>
<path class="st0" d="M53.79934,52.40664l0.00029-8.44875l8.44864-0.00018c1.69677-0.00003,3.07228-1.37559,3.07234-3.07234
	c0.00005-1.69679-1.37536-3.07225-3.07213-3.07221l-8.44864,0.00018l0.00029-8.44876
	c0.00006-1.69679-1.37536-3.07225-3.07213-3.07221c-1.69672,0.00003-3.07228,1.37555-3.07234,3.07234l-0.00029,8.44875
	l-8.44864,0.00018c-1.69672,0.00003-3.07228,1.37555-3.07233,3.07234c-0.00006,1.69674,1.3754,3.07225,3.07213,3.07221
	l8.44864-0.00018l-0.00029,8.44875c-0.00006,1.69679,1.3754,3.07225,3.07213,3.07221
	C52.42377,55.47894,53.79928,54.10343,53.79934,52.40664z"/>
</svg>
