<?xml version="1.0" encoding="utf-8"?>
<!-- Generator: Adobe Illustrator 22.0.0, SVG Export Plug-In . SVG Version: 6.00 Build 0)  -->
<svg version="1.1" id="Layer_1" xmlns="http://www.w3.org/2000/svg" xmlns:xlink="http://www.w3.org/1999/xlink" x="0px" y="0px"
	 viewBox="0 0 92.5757 81.94739" style="enable-background:new 0 0 92.5757 81.94739;" xml:space="preserve">
<style type="text/css">
	.st0{fill:#FFFFFF;}
</style>
<path class="st0" d="M61.04648,46.86037l-5.97428-5.97429l5.9743-5.9743c1.19984-1.19984,1.19981-3.14514,0.00001-4.34494
	c-1.19984-1.19984-3.1451-1.19983-4.34494,0l-5.9743,5.9743l-5.97428-5.97429c-1.19984-1.19984-3.1451-1.19983-4.34494,0
	c-1.1998,1.19981-1.19984,3.1451,0,4.34494l5.97428,5.97429l-5.9743,5.9743c-1.19981,1.19981-1.19984,3.1451,0,4.34494
	c1.1998,1.19981,3.14513,1.1998,4.34494,0l5.9743-5.9743l5.97428,5.97429c1.19983,1.19984,3.14513,1.1998,4.34494,0
	C62.24631,50.00547,62.24632,48.0602,61.04648,46.86037z"/>
</svg>
