<?xml version="1.0" encoding="utf-8"?>
<!-- Generator: Adobe Illustrator 22.0.0, SVG Export Plug-In . SVG Version: 6.00 Build 0)  -->
<svg version="1.1" id="Layer_1" xmlns="http://www.w3.org/2000/svg" xmlns:xlink="http://www.w3.org/1999/xlink" x="0px" y="0px"
	 viewBox="0 0 73.56165 72.43835" style="enable-background:new 0 0 73.56165 72.43835;" xml:space="preserve">
<g>
	<g>
		<g>
			<g>
				<path d="M40.69088,32.39803c-0.52306-0.52616-1.10303-0.99257-1.72913-1.39069c-1.65834-1.0619-3.58622-1.62617-5.55541-1.62617
					c-2.73317-0.00509-5.35528,1.08087-7.28455,3.01686l-9.35954,9.36687c-1.92599,1.9297-3.0085,4.54422-3.01022,7.27058
					c-0.00362,5.68933,4.60544,10.30434,10.29477,10.30796c2.72894,0.00948,5.34864-1.0713,7.27722-3.00212l7.72603-7.72604
					c0.14038-0.13917,0.21876-0.32905,0.21764-0.52668c-0.00233-0.40639-0.3337-0.73389-0.7401-0.73156h-0.2943
					c-1.61419,0.00569-3.21398-0.3043-4.70917-0.91238c-0.2755-0.11339-0.59213-0.04941-0.80201,0.16185l-5.55542,5.56275
					c-1.72508,1.72508-4.52197,1.72508-6.24705,0c-1.72508-1.72508-1.72508-4.52198,0-6.24705l9.39636-9.38895
					c1.7237-1.72154,4.51602-1.72154,6.23972,0c1.16166,1.09328,2.97366,1.09328,4.13524,0
					c0.49977-0.50021,0.80278-1.16365,0.85357-1.86899C41.59826,33.8214,41.2874,32.99594,40.69088,32.39803z"/>
			</g>
		</g>
		<g>
			<g>
				<path d="M54.8847,18.2042c-4.02314-4.02314-10.54595-4.02314-14.56909,0l-7.7187,7.71129
					c-0.21195,0.21298-0.27309,0.53332-0.15452,0.80942c0.11718,0.27688,0.39104,0.45459,0.69164,0.44882h0.27222
					c1.61229-0.00293,3.2095,0.30947,4.70184,0.9198c0.2755,0.11339,0.59213,0.04941,0.80201-0.16185l5.54067-5.53334
					c1.72508-1.72508,4.52197-1.72508,6.24705,0c1.72508,1.72508,1.72508,4.52197,0,6.24705l-6.90195,6.89454l-0.0589,0.06622
					l-2.41344,2.39878c-1.7237,1.72155-4.51602,1.72155-6.23972,0c-1.16167-1.09328-2.97366-1.09328-4.13524,0
					c-0.50297,0.50401-0.80623,1.17322-0.85357,1.88366c-0.05381,0.84288,0.25705,1.66834,0.85357,2.26633
					c0.85168,0.8553,1.84813,1.5528,2.94322,2.06025c0.15452,0.07355,0.30904,0.13245,0.46357,0.19867
					c0.15452,0.06623,0.31637,0.1177,0.47089,0.1766s0.31637,0.11037,0.47089,0.15452l0.43416,0.1177
					c0.2943,0.07355,0.58868,0.13245,0.89031,0.18393c0.36336,0.05398,0.72932,0.08838,1.09639,0.10304h0.51504h0.04415
					l0.44149-0.05148c0.16185-0.00733,0.33112-0.04415,0.52246-0.04415h0.25015l0.50771-0.07355l0.23549-0.04415l0.42674-0.0883
					h0.08097c1.80743-0.45399,3.45783-1.38982,4.7754-2.70782l9.36687-9.36687C58.90784,28.75015,58.90784,22.22734,54.8847,18.2042
					z"/>
			</g>
		</g>
	</g>
</g>
</svg>
