<?xml version="1.0" encoding="utf-8"?>
<!-- Generator: Adobe Illustrator 22.0.0, SVG Export Plug-In . SVG Version: 6.00 Build 0)  -->
<svg version="1.1" id="Layer_1" xmlns="http://www.w3.org/2000/svg" xmlns:xlink="http://www.w3.org/1999/xlink" x="0px" y="0px"
	 viewBox="0 0 500 500" style="enable-background:new 0 0 500 500;" xml:space="preserve">
<style type="text/css">
	.st0{fill:#FFFFFF;}
</style>
<g>
	<path id="SVGCleanerId_0_3_" class="st0" d="M483.9438477,194.947937
		c-9.8305359-1.7845459-19.3540039-4.2160034-28.3068848-7.2268982
		c-65.6260986-22.0694122-102.7243347-75.6882248-114.9303894-144.713913c-1.1589355-6.5391808-10.5918884-6.5400696-11.750824,0
		c-14.1858215,80.2077026-61.3985596,136.9288177-142.8299561,152.0428619
		c-6.476181,1.2015381-6.474411,10.5342255,0.00354,11.7330933
		c80.6797791,14.9232483,128.718689,71.5370178,142.8556824,151.1048889
		c0.8900452,5.0128784,6.1833496,5.0386353,5.8816223,4.9223633c2.8937683-0.00354,5.3695984-2.0853577,5.8692322-4.9347839
		c7.1976013-41.0320435,27.4052734-96.7779236,82.8077393-129.3256683
		c17.6990051-10.3877869,38.0256042-17.7424927,60.4135742-21.8626251c2.8334351-0.5209045,4.8904114-2.9931793,4.8868713-5.874527
		C488.8404541,197.9304504,486.7781677,195.462616,483.9438477,194.947937z"/>
	<g>
		<path id="SVGCleanerId_0_2_" class="st0" d="M483.9438477,194.947937
			c-9.8305359-1.7845459-19.3540039-4.2160034-28.3068848-7.2268982
			c-65.6260986-22.0694122-102.7243347-75.6882248-114.9303894-144.713913c-1.1589355-6.5391808-10.5918884-6.5400696-11.750824,0
			c-14.1858215,80.2077026-61.3985596,136.9288177-142.8299561,152.0428619
			c-6.476181,1.2015381-6.474411,10.5342255,0.00354,11.7330933
			c80.6797791,14.9232483,128.718689,71.5370178,142.8556824,151.1048889
			c0.8900452,5.0128784,6.1833496,5.0386353,5.8816223,4.9223633c2.8937683-0.00354,5.3695984-2.0853577,5.8692322-4.9347839
			c7.1976013-41.0320435,27.4052734-96.7779236,82.8077393-129.3256683
			c17.6990051-10.3877869,38.0256042-17.7424927,60.4135742-21.8626251c2.8334351-0.5209045,4.8904114-2.9931793,4.8868713-5.874527
			C488.8404541,197.9304504,486.7781677,195.462616,483.9438477,194.947937z"/>
	</g>
	<path class="st0" d="M248.4756165,171.8065643c-19.1170654,11.6878204-40.3150482,19.1525421-62.3498383,23.2425385
		c-6.476181,1.2015228-6.474411,10.5342102,0.00354,11.733078
		c80.6797943,14.9232483,128.7187042,71.5370026,142.8556976,151.1048737
		c0.8900146,5.0128784,6.1833191,5.0386047,5.8815918,4.9223633c2.8937683-0.00354,5.3695984-2.0853882,5.8692322-4.9347839
		c3.984375-22.7145691,11.9708862-49.9343567,27.6927795-75.2347717
		C347.0975342,223.2823334,306.3485718,186.3340302,248.4756165,171.8065643z"/>
	<path class="st0" d="M221.8512421,349.7328186c-23.2150269-7.6989746-38.5713348-24.9995422-46.0431519-48.9094238
		c-1.3426361-4.2922974-5.8674316-4.2452698-5.695282-4.1858215c-2.6080322,0-4.9143677,1.6949158-5.6934967,4.1822815
		c-7.2393341,23.109436-22.388855,40.7897949-46.0440369,48.8890076c-5.360733,1.8360291-5.3660507,9.4515991,0.000885,11.2893677
		c23.5016479,8.045105,38.7496948,25.5861511,46.0502472,48.9138794c1.3470612,4.302063,5.8638763,4.2390747,5.7050323,4.1840515
		c2.6124878-0.0044556,4.917923-1.7082214,5.6899567-4.2044678c5.39888-17.4612122,14.9232483-30.9619446,28.3086548-40.1269226
		c0.000885-0.000885,0.000885-0.000885,0.000885-0.000885c14.6339569-10.0257568,21.8182831-7.1168823,21.8076324-14.3775024
		C225.9358978,352.8182983,224.2888947,350.5412598,221.8512421,349.7328186z"/>
	<path class="st0" d="M142.1635437,336.7831421c-0.1677246-0.0576782-0.3238983-0.1375427-0.4836273-0.2094116
		c-6.8639679,5.897583-14.742218,10.2041016-23.3037643,13.1360474c-5.3607254,1.8360291-5.3660507,9.4515991,0.000885,11.2893677
		c23.5016556,8.045105,38.7496872,25.5861511,46.0502548,48.9138794c1.3470612,4.302063,5.8638763,4.2390747,5.7050323,4.1840515
		c8.4018097-0.0151062,3.9329224-10.0505981,17.9323883-28.84729
		C180.6186218,361.8696899,165.2845154,344.6977844,142.1635437,336.7831421z"/>
	<path class="st0" d="M142.00914,77.5505753c-23.306427-7.7291718-38.5970535-25.0962944-46.0440369-48.9094276
		c-1.3417358-4.2923107-5.865654-4.2443905-5.6943893-4.1858215c-2.6080399,0-4.9143677,1.6949158-5.6934967,4.1822739
		c-7.2242432,23.0606194-22.341835,40.7711678-46.0440369,48.889904c-5.3607292,1.8360138-5.3660507,9.4515991,0.000885,11.2893829
		c23.5593338,8.0654907,38.7683258,25.648262,46.0502548,48.9129868c1.3470612,4.3020782,5.865654,4.2399445,5.7041473,4.1840363
		c2.6124802-0.0044403,4.918808-1.7082214,5.6908417-4.2026825c8.9386826-28.9085312,26.9394073-38.7709961,28.3113098-40.1278152
		c14.5922546-9.999115,21.8164978-7.1559219,21.8067322-14.3775024
		C146.0929108,80.6360321,144.4459229,78.3589859,142.00914,77.5505753z"/>
	<path class="st0" d="M60.0177956,65.8867188c-16.4486732,13.1502304-25.517807,9.4737778-25.517807,17.2854767
		c0,2.5512466,1.6212616,4.8185349,4.0340767,5.6438065c23.5593338,8.0654907,38.7683258,25.6482544,46.0502548,48.9129715
		c1.3470612,4.3020782,5.865654,4.2399597,5.7041473,4.1840515c7.9820862-0.0142059,4.1467743-9.3344727,16.811615-27.3209839
		C94.0616531,74.3391037,62.963932,67.812355,60.0177956,65.8867188z"/>
	<g>
	</g>
	<g>
	</g>
	<g>
	</g>
	<g>
	</g>
	<g>
	</g>
	<g>
	</g>
	<g>
	</g>
	<g>
	</g>
	<g>
	</g>
	<g>
	</g>
	<g>
	</g>
	<g>
	</g>
	<g>
	</g>
	<g>
	</g>
	<g>
	</g>
</g>
</svg>
