<?xml version="1.0" encoding="utf-8"?>
<!-- Generator: Adobe Illustrator 22.0.0, SVG Export Plug-In . SVG Version: 6.00 Build 0)  -->
<svg version="1.1" id="Layer_1" xmlns="http://www.w3.org/2000/svg" xmlns:xlink="http://www.w3.org/1999/xlink" x="0px" y="0px"
	 viewBox="0 0 92.6 81.9" style="enable-background:new 0 0 92.6 81.9;" xml:space="preserve">
<style type="text/css">
	.st0{fill:url(#SVGID_1_);}
	.st1{fill:url(#SVGID_2_);}
</style>
<g>
	<g>
		<g>
			<linearGradient id="SVGID_1_" gradientUnits="userSpaceOnUse" x1="123.4999" y1="-101.7906" x2="212.8226" y2="-101.7906">
				<stop  offset="0" style="stop-color:#8E2DE2"/>
				<stop  offset="1" style="stop-color:#4A00E0"/>
			</linearGradient>
			<path class="st0" d="M208.2-107.2l-7.2-3.3l-6.3-10.1c-1.8-2.9-5.1-4.7-8.5-4.7h-27c-3.1,0-6.1,1.4-8,3.9l-8.2,10.7l-13.6,3.7
				c-3.5,1-5.9,4.1-5.9,7.7v5.2c0,4.4,3.5,8.1,7.9,8.1h1.2c1.4,5.4,7,8.7,12.4,7.3c3.6-0.9,6.4-3.7,7.3-7.3H183
				c1.4,5.4,7,8.7,12.4,7.3c3.6-0.9,6.4-3.7,7.3-7.3h2.2c4.4,0,7.9-3.6,7.9-8.1v-5.9C212.8-103.1,211-105.9,208.2-107.2z M142.4-82
				c-3.6,0-6.5-2.9-6.5-6.5c0-3.6,2.9-6.5,6.5-6.5s6.5,2.9,6.5,6.5C148.9-84.9,146-82,142.4-82z M192.9-82c-3.6,0-6.5-2.9-6.5-6.5
				c0-3.6,2.9-6.5,6.5-6.5s6.5,2.9,6.5,6.5C199.4-84.9,196.5-82,192.9-82z M204.9-89.6H203c-0.6-5.6-5.6-9.6-11.2-9
				c-4.7,0.5-8.5,4.3-9,9h-30.2c-0.6-5.6-5.6-9.6-11.2-9c-4.7,0.5-8.5,4.3-9,9h-0.9c-2.4,0-4.3-2-4.3-4.4v-5.2c0-2,1.3-3.7,3.2-4.2
				l14.3-3.9c0.4-0.1,0.7-0.3,1-0.7l8.5-11.2c1.2-1.6,3.1-2.5,5.1-2.5h27c2.2,0,4.3,1.1,5.4,3l6.6,10.6c0.2,0.3,0.5,0.5,0.8,0.7
				l7.7,3.5c1.5,0.7,2.5,2.3,2.5,4v5.9h0C209.2-91.6,207.3-89.6,204.9-89.6z"/>
		</g>
	</g>
</g>
<g>
	<g>
		<g>
			<linearGradient id="SVGID_2_" gradientUnits="userSpaceOnUse" x1="1.7281" y1="41.5108" x2="90.4487" y2="41.5108">
				<stop  offset="0" style="stop-color:#8E2DE2"/>
				<stop  offset="1" style="stop-color:#4A00E0"/>
			</linearGradient>
			<path class="st1" d="M64.6,4.5h-9.2c0,5.1-4.1,9.2-9.2,9.2s-9.2-4.1-9.2-9.2h-9.2L1.7,19.3l7.4,20.3L20.2,36v42.5H72V36l11.1,3.7
				l7.4-20.3L64.6,4.5z M80.8,35l-7.7-2.6l-4.9-1.6V36v38.8H23.9V36v-5.1L19,32.5L11.4,35L6.3,21L28.6,8.2h5.1
				c1.6,5.3,6.5,9.2,12.4,9.2c5.9,0,10.8-3.9,12.4-9.2h5.1L85.9,21L80.8,35z"/>
		</g>
	</g>
</g>
</svg>
