<?xml version="1.0" encoding="utf-8"?>
<!-- Generator: Adobe Illustrator 22.0.0, SVG Export Plug-In . SVG Version: 6.00 Build 0)  -->
<svg version="1.1" id="Layer_1" xmlns="http://www.w3.org/2000/svg" xmlns:xlink="http://www.w3.org/1999/xlink" x="0px" y="0px"
	 viewBox="0 0 92.6 81.9" style="enable-background:new 0 0 92.6 81.9;" xml:space="preserve">
<style type="text/css">
	.st0{fill:url(#SVGID_1_);}
	.st1{fill:url(#SVGID_2_);}
	.st2{fill:url(#SVGID_3_);}
	.st3{fill:url(#SVGID_4_);}
	.st4{fill:url(#SVGID_5_);}
	.st5{fill:url(#SVGID_6_);}
	.st6{fill:url(#SVGID_7_);}
	.st7{fill:url(#SVGID_8_);}
	.st8{fill:url(#SVGID_9_);}
	.st9{fill:url(#SVGID_10_);}
	.st10{fill:url(#SVGID_11_);}
	.st11{fill:url(#SVGID_12_);}
	.st12{fill:url(#SVGID_13_);}
	.st13{fill:url(#SVGID_14_);}
	.st14{fill:url(#SVGID_15_);}
	.st15{fill:url(#SVGID_16_);}
	.st16{fill:url(#SVGID_17_);}
	.st17{fill:url(#SVGID_18_);}
	.st18{fill:url(#SVGID_19_);}
	.st19{fill:url(#SVGID_20_);}
	.st20{fill:url(#SVGID_21_);}
	.st21{fill:url(#SVGID_22_);}
	.st22{fill:url(#SVGID_23_);}
	.st23{fill:url(#SVGID_24_);}
	.st24{fill:url(#SVGID_25_);}
	.st25{fill:url(#SVGID_26_);}
</style>
<g>
	<g>
		<g>
			<linearGradient id="SVGID_1_" gradientUnits="userSpaceOnUse" x1="561.0416" y1="92.4876" x2="650.3642" y2="92.4876">
				<stop  offset="0" style="stop-color:#8E2DE2"/>
				<stop  offset="1" style="stop-color:#4A00E0"/>
			</linearGradient>
			<path class="st0" d="M645.7,87.1l-7.2-3.3l-6.3-10.1c-1.8-2.9-5.1-4.7-8.5-4.7h-27c-3.1,0-6.1,1.4-8,3.9l-8.2,10.7l-13.6,3.7
				c-3.5,1-5.9,4.1-5.9,7.7v5.2c0,4.4,3.5,8.1,7.9,8.1h1.2c1.4,5.4,7,8.7,12.4,7.3c3.6-0.9,6.4-3.7,7.3-7.3h30.8
				c1.4,5.4,7,8.7,12.4,7.3c3.6-0.9,6.4-3.7,7.3-7.3h2.2c4.4,0,7.9-3.6,7.9-8.1v-5.9C650.4,91.2,648.6,88.4,645.7,87.1z M580,112.3
				c-3.6,0-6.5-2.9-6.5-6.5c0-3.6,2.9-6.5,6.5-6.5c3.6,0,6.5,2.9,6.5,6.5C586.5,109.3,583.6,112.3,580,112.3z M630.4,112.3
				c-3.6,0-6.5-2.9-6.5-6.5c0-3.6,2.9-6.5,6.5-6.5c3.6,0,6.5,2.9,6.5,6.5C636.9,109.3,634,112.3,630.4,112.3z M642.4,104.7h-1.9
				c-0.6-5.6-5.6-9.6-11.2-9c-4.7,0.5-8.5,4.3-9,9h-30.2c-0.6-5.6-5.6-9.6-11.2-9c-4.7,0.5-8.5,4.3-9,9h-0.9c-2.4,0-4.3-2-4.3-4.4
				v-5.2c0-2,1.3-3.7,3.2-4.2l14.3-3.9c0.4-0.1,0.7-0.3,1-0.7l8.5-11.2c1.2-1.6,3.1-2.5,5.1-2.5h27c2.2,0,4.3,1.1,5.4,3l6.6,10.6
				c0.2,0.3,0.5,0.5,0.8,0.7l7.7,3.5c1.5,0.7,2.5,2.3,2.5,4v5.9h0C646.7,102.7,644.8,104.7,642.4,104.7z"/>
		</g>
	</g>
</g>
<g>
	<g>
		<linearGradient id="SVGID_2_" gradientUnits="userSpaceOnUse" x1="5.252210e-06" y1="49.4859" x2="90.9717" y2="49.4859">
			<stop  offset="0" style="stop-color:#8E2DE2"/>
			<stop  offset="1" style="stop-color:#4A00E0"/>
		</linearGradient>
		<path class="st1" d="M76.2,20.7C73.8,19.4,59.1,11.5,51,6.4C49.6,4.9,47.7,4,45.5,4c-2.2,0-4.1,0.9-5.5,2.4
			c-8.1,5.1-22.8,13-25.2,14.3L0,20.7L0,95l91,0l0-74.3H76.2z M37.9,11.2c0,0.1,0,0.2,0,0.4c0,4.2,3.4,7.6,7.6,7.6
			c4.2,0,7.6-3.4,7.6-7.6c0-0.1,0-0.2,0-0.4c5.4,3.2,12.2,7,16.8,9.5l-48.7,0C25.7,18.2,32.5,14.4,37.9,11.2z M87.9,91.9L3,91.9
			l0-57.6l84.9,0V91.9z"/>
	</g>
	<g>
		<linearGradient id="SVGID_3_" gradientUnits="userSpaceOnUse" x1="33.3563" y1="46.4535" x2="36.3887" y2="46.4535">
			<stop  offset="0" style="stop-color:#8E2DE2"/>
			<stop  offset="1" style="stop-color:#4A00E0"/>
		</linearGradient>
		<circle class="st2" cx="34.9" cy="46.5" r="1.5"/>
	</g>
	<g>
		<linearGradient id="SVGID_4_" gradientUnits="userSpaceOnUse" x1="43.9697" y1="46.4535" x2="47.002" y2="46.4535">
			<stop  offset="0" style="stop-color:#8E2DE2"/>
			<stop  offset="1" style="stop-color:#4A00E0"/>
		</linearGradient>
		<circle class="st3" cx="45.5" cy="46.5" r="1.5"/>
	</g>
	<g>
		<linearGradient id="SVGID_5_" gradientUnits="userSpaceOnUse" x1="54.583" y1="46.4535" x2="57.6154" y2="46.4535">
			<stop  offset="0" style="stop-color:#8E2DE2"/>
			<stop  offset="1" style="stop-color:#4A00E0"/>
		</linearGradient>
		<circle class="st4" cx="56.1" cy="46.5" r="1.5"/>
	</g>
	<g>
		<linearGradient id="SVGID_6_" gradientUnits="userSpaceOnUse" x1="65.1964" y1="46.4535" x2="68.2288" y2="46.4535">
			<stop  offset="0" style="stop-color:#8E2DE2"/>
			<stop  offset="1" style="stop-color:#4A00E0"/>
		</linearGradient>
		<circle class="st5" cx="66.7" cy="46.5" r="1.5"/>
	</g>
	<g>
		<linearGradient id="SVGID_7_" gradientUnits="userSpaceOnUse" x1="75.8097" y1="46.4535" x2="78.8421" y2="46.4535">
			<stop  offset="0" style="stop-color:#8E2DE2"/>
			<stop  offset="1" style="stop-color:#4A00E0"/>
		</linearGradient>
		<circle class="st6" cx="77.3" cy="46.5" r="1.5"/>
	</g>
	<g>
		<linearGradient id="SVGID_8_" gradientUnits="userSpaceOnUse" x1="12.1296" y1="58.5831" x2="15.162" y2="58.5831">
			<stop  offset="0" style="stop-color:#8E2DE2"/>
			<stop  offset="1" style="stop-color:#4A00E0"/>
		</linearGradient>
		<circle class="st7" cx="13.6" cy="58.6" r="1.5"/>
	</g>
	<g>
		<linearGradient id="SVGID_9_" gradientUnits="userSpaceOnUse" x1="22.7429" y1="58.5831" x2="25.7753" y2="58.5831">
			<stop  offset="0" style="stop-color:#8E2DE2"/>
			<stop  offset="1" style="stop-color:#4A00E0"/>
		</linearGradient>
		<circle class="st8" cx="24.3" cy="58.6" r="1.5"/>
	</g>
	<g>
		<linearGradient id="SVGID_10_" gradientUnits="userSpaceOnUse" x1="33.3563" y1="58.5831" x2="36.3887" y2="58.5831">
			<stop  offset="0" style="stop-color:#8E2DE2"/>
			<stop  offset="1" style="stop-color:#4A00E0"/>
		</linearGradient>
		<circle class="st9" cx="34.9" cy="58.6" r="1.5"/>
	</g>
	<g>
		<linearGradient id="SVGID_11_" gradientUnits="userSpaceOnUse" x1="43.9697" y1="58.5831" x2="47.002" y2="58.5831">
			<stop  offset="0" style="stop-color:#8E2DE2"/>
			<stop  offset="1" style="stop-color:#4A00E0"/>
		</linearGradient>
		<circle class="st10" cx="45.5" cy="58.6" r="1.5"/>
	</g>
	<g>
		<linearGradient id="SVGID_12_" gradientUnits="userSpaceOnUse" x1="54.583" y1="58.5831" x2="57.6154" y2="58.5831">
			<stop  offset="0" style="stop-color:#8E2DE2"/>
			<stop  offset="1" style="stop-color:#4A00E0"/>
		</linearGradient>
		<circle class="st11" cx="56.1" cy="58.6" r="1.5"/>
	</g>
	<g>
		<linearGradient id="SVGID_13_" gradientUnits="userSpaceOnUse" x1="65.1964" y1="58.5831" x2="68.2288" y2="58.5831">
			<stop  offset="0" style="stop-color:#8E2DE2"/>
			<stop  offset="1" style="stop-color:#4A00E0"/>
		</linearGradient>
		<circle class="st12" cx="66.7" cy="58.6" r="1.5"/>
	</g>
	<g>
		<linearGradient id="SVGID_14_" gradientUnits="userSpaceOnUse" x1="75.8097" y1="58.5831" x2="78.8421" y2="58.5831">
			<stop  offset="0" style="stop-color:#8E2DE2"/>
			<stop  offset="1" style="stop-color:#4A00E0"/>
		</linearGradient>
		<circle class="st13" cx="77.3" cy="58.6" r="1.5"/>
	</g>
	<g>
		<linearGradient id="SVGID_15_" gradientUnits="userSpaceOnUse" x1="12.1296" y1="69.1964" x2="15.162" y2="69.1964">
			<stop  offset="0" style="stop-color:#8E2DE2"/>
			<stop  offset="1" style="stop-color:#4A00E0"/>
		</linearGradient>
		<circle class="st14" cx="13.6" cy="69.2" r="1.5"/>
	</g>
	<g>
		<linearGradient id="SVGID_16_" gradientUnits="userSpaceOnUse" x1="22.7429" y1="69.1964" x2="25.7753" y2="69.1964">
			<stop  offset="0" style="stop-color:#8E2DE2"/>
			<stop  offset="1" style="stop-color:#4A00E0"/>
		</linearGradient>
		<circle class="st15" cx="24.3" cy="69.2" r="1.5"/>
	</g>
	<g>
		<linearGradient id="SVGID_17_" gradientUnits="userSpaceOnUse" x1="33.3563" y1="69.1964" x2="36.3887" y2="69.1964">
			<stop  offset="0" style="stop-color:#8E2DE2"/>
			<stop  offset="1" style="stop-color:#4A00E0"/>
		</linearGradient>
		<circle class="st16" cx="34.9" cy="69.2" r="1.5"/>
	</g>
	<g>
		<linearGradient id="SVGID_18_" gradientUnits="userSpaceOnUse" x1="43.9697" y1="69.1964" x2="47.002" y2="69.1964">
			<stop  offset="0" style="stop-color:#8E2DE2"/>
			<stop  offset="1" style="stop-color:#4A00E0"/>
		</linearGradient>
		<circle class="st17" cx="45.5" cy="69.2" r="1.5"/>
	</g>
	<g>
		<linearGradient id="SVGID_19_" gradientUnits="userSpaceOnUse" x1="54.583" y1="69.1964" x2="57.6154" y2="69.1964">
			<stop  offset="0" style="stop-color:#8E2DE2"/>
			<stop  offset="1" style="stop-color:#4A00E0"/>
		</linearGradient>
		<circle class="st18" cx="56.1" cy="69.2" r="1.5"/>
	</g>
	<g>
		<linearGradient id="SVGID_20_" gradientUnits="userSpaceOnUse" x1="65.1964" y1="69.1964" x2="68.2288" y2="69.1964">
			<stop  offset="0" style="stop-color:#8E2DE2"/>
			<stop  offset="1" style="stop-color:#4A00E0"/>
		</linearGradient>
		<circle class="st19" cx="66.7" cy="69.2" r="1.5"/>
	</g>
	<g>
		<linearGradient id="SVGID_21_" gradientUnits="userSpaceOnUse" x1="75.8097" y1="69.1964" x2="78.8421" y2="69.1964">
			<stop  offset="0" style="stop-color:#8E2DE2"/>
			<stop  offset="1" style="stop-color:#4A00E0"/>
		</linearGradient>
		<circle class="st20" cx="77.3" cy="69.2" r="1.5"/>
	</g>
	<g>
		<linearGradient id="SVGID_22_" gradientUnits="userSpaceOnUse" x1="12.1296" y1="81.326" x2="15.162" y2="81.326">
			<stop  offset="0" style="stop-color:#8E2DE2"/>
			<stop  offset="1" style="stop-color:#4A00E0"/>
		</linearGradient>
		<circle class="st21" cx="13.6" cy="81.3" r="1.5"/>
	</g>
	<g>
		<linearGradient id="SVGID_23_" gradientUnits="userSpaceOnUse" x1="22.7429" y1="81.326" x2="25.7753" y2="81.326">
			<stop  offset="0" style="stop-color:#8E2DE2"/>
			<stop  offset="1" style="stop-color:#4A00E0"/>
		</linearGradient>
		<circle class="st22" cx="24.3" cy="81.3" r="1.5"/>
	</g>
	<g>
		<linearGradient id="SVGID_24_" gradientUnits="userSpaceOnUse" x1="33.3563" y1="81.326" x2="36.3887" y2="81.326">
			<stop  offset="0" style="stop-color:#8E2DE2"/>
			<stop  offset="1" style="stop-color:#4A00E0"/>
		</linearGradient>
		<circle class="st23" cx="34.9" cy="81.3" r="1.5"/>
	</g>
	<g>
		<linearGradient id="SVGID_25_" gradientUnits="userSpaceOnUse" x1="43.9697" y1="81.326" x2="47.002" y2="81.326">
			<stop  offset="0" style="stop-color:#8E2DE2"/>
			<stop  offset="1" style="stop-color:#4A00E0"/>
		</linearGradient>
		<circle class="st24" cx="45.5" cy="81.3" r="1.5"/>
	</g>
	<g>
		<linearGradient id="SVGID_26_" gradientUnits="userSpaceOnUse" x1="54.583" y1="81.326" x2="57.6154" y2="81.326">
			<stop  offset="0" style="stop-color:#8E2DE2"/>
			<stop  offset="1" style="stop-color:#4A00E0"/>
		</linearGradient>
		<circle class="st25" cx="56.1" cy="81.3" r="1.5"/>
	</g>
</g>
</svg>
