<?xml version="1.0" encoding="utf-8"?>
<!-- Generator: Adobe Illustrator 22.0.0, SVG Export Plug-In . SVG Version: 6.00 Build 0)  -->
<svg version="1.1" id="Layer_1" xmlns="http://www.w3.org/2000/svg" xmlns:xlink="http://www.w3.org/1999/xlink" x="0px" y="0px"
	 viewBox="0 0 92.6 81.9" style="enable-background:new 0 0 92.6 81.9;" xml:space="preserve">
<style type="text/css">
	.st0{fill:url(#SVGID_1_);}
	.st1{fill:url(#SVGID_2_);}
	.st2{fill:url(#SVGID_3_);}
	.st3{fill:url(#SVGID_4_);}
	.st4{fill:url(#SVGID_5_);}
	.st5{fill:url(#SVGID_6_);}
	.st6{fill:url(#SVGID_7_);}
	.st7{fill:url(#SVGID_8_);}
	.st8{fill:url(#SVGID_9_);}
	.st9{fill:url(#SVGID_10_);}
	.st10{fill:url(#SVGID_11_);}
</style>
<g>
	<g>
		<g>
			<linearGradient id="SVGID_1_" gradientUnits="userSpaceOnUse" x1="561.0416" y1="92.4876" x2="650.3642" y2="92.4876">
				<stop  offset="0" style="stop-color:#8E2DE2"/>
				<stop  offset="1" style="stop-color:#4A00E0"/>
			</linearGradient>
			<path class="st0" d="M645.7,87.1l-7.2-3.3l-6.3-10.1c-1.8-2.9-5.1-4.7-8.5-4.7h-27c-3.1,0-6.1,1.4-8,3.9l-8.2,10.7l-13.6,3.7
				c-3.5,1-5.9,4.1-5.9,7.7v5.2c0,4.4,3.5,8.1,7.9,8.1h1.2c1.4,5.4,7,8.7,12.4,7.3c3.6-0.9,6.4-3.7,7.3-7.3h30.8
				c1.4,5.4,7,8.7,12.4,7.3c3.6-0.9,6.4-3.7,7.3-7.3h2.2c4.4,0,7.9-3.6,7.9-8.1v-5.9C650.4,91.2,648.6,88.4,645.7,87.1z M580,112.3
				c-3.6,0-6.5-2.9-6.5-6.5c0-3.6,2.9-6.5,6.5-6.5c3.6,0,6.5,2.9,6.5,6.5C586.5,109.3,583.6,112.3,580,112.3z M630.4,112.3
				c-3.6,0-6.5-2.9-6.5-6.5c0-3.6,2.9-6.5,6.5-6.5c3.6,0,6.5,2.9,6.5,6.5C636.9,109.3,634,112.3,630.4,112.3z M642.4,104.7h-1.9
				c-0.6-5.6-5.6-9.6-11.2-9c-4.7,0.5-8.5,4.3-9,9h-30.2c-0.6-5.6-5.6-9.6-11.2-9c-4.7,0.5-8.5,4.3-9,9h-0.9c-2.4,0-4.3-2-4.3-4.4
				v-5.2c0-2,1.3-3.7,3.2-4.2l14.3-3.9c0.4-0.1,0.7-0.3,1-0.7l8.5-11.2c1.2-1.6,3.1-2.5,5.1-2.5h27c2.2,0,4.3,1.1,5.4,3l6.6,10.6
				c0.2,0.3,0.5,0.5,0.8,0.7l7.7,3.5c1.5,0.7,2.5,2.3,2.5,4v5.9h0C646.7,102.7,644.8,104.7,642.4,104.7z"/>
		</g>
	</g>
</g>
<g>
	<g>
		<linearGradient id="SVGID_2_" gradientUnits="userSpaceOnUse" x1="9.5557" y1="16.7021" x2="25.496" y2="16.7021">
			<stop  offset="0" style="stop-color:#8E2DE2"/>
			<stop  offset="1" style="stop-color:#4A00E0"/>
		</linearGradient>
		<path class="st1" d="M17.5,24.7c4.4,0,8-3.6,8-8s-3.6-8-8-8c-4.4,0-8,3.6-8,8C9.6,21.1,13.1,24.7,17.5,24.7z M17.5,11.2
			c3,0,5.5,2.5,5.5,5.5s-2.5,5.5-5.5,5.5S12,19.7,12,16.7C12,13.7,14.5,11.2,17.5,11.2z"/>
	</g>
	<g>
		<linearGradient id="SVGID_3_" gradientUnits="userSpaceOnUse" x1="16.2899" y1="5.115" x2="18.7619" y2="5.115">
			<stop  offset="0" style="stop-color:#8E2DE2"/>
			<stop  offset="1" style="stop-color:#4A00E0"/>
		</linearGradient>
		<path class="st2" d="M17.5,7.6c0.7,0,1.2-0.6,1.2-1.2V3.9c0-0.7-0.6-1.2-1.2-1.2c-0.7,0-1.2,0.6-1.2,1.2v2.5
			C16.3,7,16.8,7.6,17.5,7.6z"/>
	</g>
	<g>
		<linearGradient id="SVGID_4_" gradientUnits="userSpaceOnUse" x1="23.604" y1="8.5087" x2="27.8347" y2="8.5087">
			<stop  offset="0" style="stop-color:#8E2DE2"/>
			<stop  offset="1" style="stop-color:#4A00E0"/>
		</linearGradient>
		<path class="st3" d="M24.8,10.6c0.3,0,0.6-0.1,0.9-0.4l1.8-1.8C28,8,28,7.2,27.5,6.8c-0.5-0.5-1.3-0.5-1.7,0L24,8.5
			c-0.5,0.5-0.5,1.3,0,1.7C24.2,10.5,24.5,10.6,24.8,10.6z"/>
	</g>
	<g>
		<linearGradient id="SVGID_5_" gradientUnits="userSpaceOnUse" x1="26.6339" y1="16.7021" x2="31.5923" y2="16.7021">
			<stop  offset="0" style="stop-color:#8E2DE2"/>
			<stop  offset="1" style="stop-color:#4A00E0"/>
		</linearGradient>
		<path class="st4" d="M26.6,16.7c0,0.7,0.6,1.2,1.2,1.2h2.5c0.7,0,1.2-0.6,1.2-1.2s-0.6-1.2-1.2-1.2h-2.5
			C27.2,15.5,26.6,16,26.6,16.7z"/>
	</g>
	<g>
		<linearGradient id="SVGID_6_" gradientUnits="userSpaceOnUse" x1="23.604" y1="24.8955" x2="27.8347" y2="24.8955">
			<stop  offset="0" style="stop-color:#8E2DE2"/>
			<stop  offset="1" style="stop-color:#4A00E0"/>
		</linearGradient>
		<path class="st5" d="M24,23.1c-0.5,0.5-0.5,1.3,0,1.7l1.8,1.8c0.2,0.2,0.6,0.4,0.9,0.4c0.3,0,0.6-0.1,0.9-0.4
			c0.5-0.5,0.5-1.3,0-1.7l-1.8-1.8C25.2,22.7,24.4,22.7,24,23.1z"/>
	</g>
	<g>
		<linearGradient id="SVGID_7_" gradientUnits="userSpaceOnUse" x1="16.2899" y1="28.2894" x2="18.7619" y2="28.2894">
			<stop  offset="0" style="stop-color:#8E2DE2"/>
			<stop  offset="1" style="stop-color:#4A00E0"/>
		</linearGradient>
		<path class="st6" d="M16.3,27v2.5c0,0.7,0.6,1.2,1.2,1.2c0.7,0,1.2-0.6,1.2-1.2V27c0-0.7-0.6-1.2-1.2-1.2
			C16.8,25.8,16.3,26.4,16.3,27z"/>
	</g>
	<g>
		<linearGradient id="SVGID_8_" gradientUnits="userSpaceOnUse" x1="7.2174" y1="24.8955" x2="11.4479" y2="24.8955">
			<stop  offset="0" style="stop-color:#8E2DE2"/>
			<stop  offset="1" style="stop-color:#4A00E0"/>
		</linearGradient>
		<path class="st7" d="M9.3,23.1l-1.8,1.8c-0.5,0.5-0.5,1.3,0,1.7C7.8,26.9,8.1,27,8.5,27c0.3,0,0.6-0.1,0.9-0.4l1.8-1.8
			c0.5-0.5,0.5-1.3,0-1.7C10.6,22.7,9.8,22.7,9.3,23.1z"/>
	</g>
	<g>
		<linearGradient id="SVGID_9_" gradientUnits="userSpaceOnUse" x1="3.4595" y1="16.7021" x2="8.4179" y2="16.7021">
			<stop  offset="0" style="stop-color:#8E2DE2"/>
			<stop  offset="1" style="stop-color:#4A00E0"/>
		</linearGradient>
		<path class="st8" d="M4.7,17.9h2.5c0.7,0,1.2-0.6,1.2-1.2s-0.6-1.2-1.2-1.2H4.7c-0.7,0-1.2,0.6-1.2,1.2S4,17.9,4.7,17.9z"/>
	</g>
	<g>
		<linearGradient id="SVGID_10_" gradientUnits="userSpaceOnUse" x1="7.2173" y1="8.5087" x2="11.4479" y2="8.5087">
			<stop  offset="0" style="stop-color:#8E2DE2"/>
			<stop  offset="1" style="stop-color:#4A00E0"/>
		</linearGradient>
		<path class="st9" d="M9.3,10.3c0.2,0.2,0.6,0.4,0.9,0.4c0.3,0,0.6-0.1,0.9-0.4c0.5-0.5,0.5-1.3,0-1.7L9.3,6.8
			c-0.5-0.5-1.3-0.5-1.7,0C7.1,7.2,7.1,8,7.6,8.5L9.3,10.3z"/>
	</g>
	<g>
		<linearGradient id="SVGID_11_" gradientUnits="userSpaceOnUse" x1="3.7506" y1="43.9882" x2="87.5583" y2="43.9882">
			<stop  offset="0" style="stop-color:#8E2DE2"/>
			<stop  offset="1" style="stop-color:#4A00E0"/>
		</linearGradient>
		<path class="st10" d="M87,72.8c-2.2-1.5-4.7-2.1-7.1-2c-2.3-3.1-6.6-5.8-12.5-7.8c-3.7-1.2-7.8-2.1-12.1-2.6l8.9-22.2
			c1.3,1,2.5,2.1,3.5,3.4c0.3,0.4,0.8,0.7,1.3,0.5c2.9-0.5,6-0.2,9,1c3,1.2,5.5,3.1,7.2,5.5c0.2,0.3,0.6,0.5,1,0.5
			c0.1,0,0.2,0,0.3,0c0.5-0.1,0.9-0.5,0.9-1c0-0.3,1.1-8.1-1.4-16.6c-0.2-0.7-0.9-1-1.5-0.8c-0.7,0.2-1,0.9-0.8,1.5
			c1.5,4.9,1.7,9.7,1.6,12.7c-1.8-1.7-3.9-3.1-6.3-4c-2.7-1.1-5.6-1.5-8.4-1.4c0-0.1,0-0.1,0.1-0.2c1-3,1.7-6,2-9.1
			c0.3-2.8,0.4-5.7,0-8.5c-0.2-1.6-0.6-3.3-1.1-4.8c0,0,0,0,0,0c4.4,2.4,7.8,5.9,10.2,10.6c0.3,0.6,1,0.9,1.7,0.6
			c0.6-0.3,0.9-1,0.6-1.7c-3.1-6.1-7.9-10.5-14.3-13.1c-8.8-3.5-18-2.4-26.6,3.4c-6.4,4.3-10.1,9.5-10.3,9.7c-0.3,0.4-0.3,1,0,1.4
			c0.3,0.4,0.8,0.6,1.3,0.5c2.9-0.5,6.1-0.2,9,1c2.9,1.2,5.4,3,7.2,5.4c0.3,0.5,0.8,0.7,1.4,0.6c1.6-0.3,3.2-0.3,4.8-0.1l-9.9,24.8
			c-0.2,0-0.5,0-0.7,0c-5.7,0-11.1,0.6-16.2,1.7c-0.7,0.1-1.1,0.8-0.9,1.5c0.1,0.7,0.8,1.1,1.5,0.9c4.8-1.1,10.2-1.6,15.6-1.6
			c2.6,0,5.2,0.1,7.7,0.4c0,0,0,0,0,0c4.8,0.5,9.2,1.4,13.2,2.7c4.7,1.6,8.3,3.7,10.5,6c-1.1,0.3-2.1,0.8-3.1,1.5
			c-3.1,2.1-7.1,2.1-10.2,0c-3.9-2.7-9.1-2.7-13,0c-3.1,2.1-7.1,2.1-10.2,0c-3.9-2.7-9.1-2.7-13,0c-3.1,2.1-7.1,2.1-10.2,0
			c-1-0.7-2-1.2-3.1-1.5c2.1-2.3,5.8-4.4,10.5-6c0.6-0.2,1-0.9,0.8-1.6c-0.2-0.6-0.9-1-1.6-0.8c-5.9,2-10.2,4.7-12.5,7.8
			c-2.5-0.1-5,0.5-7.1,2c-0.6,0.4-0.7,1.2-0.3,1.7c0.4,0.6,1.2,0.7,1.7,0.3c1.8-1.2,4-1.8,6.1-1.5c0.1,0,0.2,0,0.2,0
			c1.4,0.2,2.7,0.7,3.9,1.5c3.9,2.7,9.1,2.7,13,0c3.1-2.1,7.1-2.1,10.2,0c3.9,2.7,9.1,2.7,13,0c3.1-2.1,7.1-2.1,10.2,0
			c2,1.3,4.2,2,6.5,2c2.3,0,4.5-0.7,6.5-2c1.2-0.8,2.5-1.3,3.9-1.5c0.1,0,0.2,0,0.2,0c2.1-0.2,4.2,0.3,6.1,1.5
			c0.6,0.4,1.3,0.2,1.7-0.3C87.7,73.9,87.5,73.2,87,72.8z M53.1,32.4C53.1,32.4,53.1,32.4,53.1,32.4c1.2-2.5,2.5-4.8,4.1-7
			c0.4-0.5,0.3-1.3-0.3-1.7c-0.5-0.4-1.3-0.3-1.7,0.3c-1.3,1.7-2.4,3.6-3.4,5.5c-0.4,0.7-0.7,1.4-1,2.1c0,0,0,0,0,0
			c-1.9-2-4.3-3.7-7-4.8c-2.4-1-4.9-1.4-7.3-1.4c1.7-1.9,4.4-4.6,7.9-6.9c3.5-2.3,7.1-3.8,10.7-4.5c3.5-0.6,7-0.5,10.6,0.4
			c0,0,0,0,0,0c-1.9,1-3.7,2.3-5.3,3.8c-0.6,0.6-1.2,1.2-1.8,1.8c-0.5,0.5-0.5,1.3,0,1.7c0.5,0.5,1.3,0.5,1.7,0
			c1.6-1.7,3.4-3.2,5.3-4.4c0.9-0.6,1.8-1.1,2.8-1.5c0.3,0.6,0.6,1.5,0.9,2.6c1.5,5.4,1.1,11.2-0.2,16.5c-0.3,1.2-0.6,2.3-1,3.4
			c0,0,0,0,0,0c-1.7-1.8-3.7-3.2-6.1-4.3c0,0-0.1,0-0.1,0C59.2,32.9,56.1,32.2,53.1,32.4z M52.7,60.1c-0.6,0-1.2-0.1-1.7-0.1
			c-0.6,0-1.3-0.1-1.9-0.1l9.7-24.3c0.6,0.2,1.2,0.4,1.7,0.6c0.1,0,1.5,0.7,1.5,0.7L52.7,60.1z"/>
	</g>
</g>
</svg>
