<?xml version="1.0" encoding="utf-8"?>
<!-- Generator: Adobe Illustrator 22.0.0, SVG Export Plug-In . SVG Version: 6.00 Build 0)  -->
<svg version="1.1" id="Layer_1" xmlns="http://www.w3.org/2000/svg" xmlns:xlink="http://www.w3.org/1999/xlink" x="0px" y="0px"
	 viewBox="0 0 92.5757 81.94739" style="enable-background:new 0 0 92.5757 81.94739;" xml:space="preserve">
<style type="text/css">
	.st0{fill:url(#SVGID_1_);}
	.st1{fill:url(#SVGID_2_);}
</style>
<g>
	<g>
		<g>
			<g>
				<linearGradient id="SVGID_1_" gradientUnits="userSpaceOnUse" x1="4.34393" y1="19.65564" x2="90.46317" y2="19.65564">
					<stop  offset="0" style="stop-color:#8E2DE2"/>
					<stop  offset="1" style="stop-color:#4A00E0"/>
				</linearGradient>
				<path class="st0" d="M89.54725,32.79458L48.72546,2.90572c-0.78718-0.57626-1.85661-0.57626-2.64345,0L5.25989,32.79458
					c-0.9971,0.73016-1.21374,2.13027-0.48358,3.12737c0.73016,0.9971,2.13044,1.2134,3.12737,0.48358l39.49989-28.9212
					l39.4999,28.92103c0.3983,0.29183,0.86119,0.43228,1.32004,0.43228c0.68896,0,1.36883-0.31706,1.80715-0.91586
					C90.76099,34.92485,90.54434,33.52475,89.54725,32.79458z"/>
			</g>
		</g>
	</g>
	<g>
		<g>
			<g>
				<linearGradient id="SVGID_2_" gradientUnits="userSpaceOnUse" x1="13.83933" y1="58.07675" x2="80.96815" y2="58.07675">
					<stop  offset="0" style="stop-color:#8E2DE2"/>
					<stop  offset="1" style="stop-color:#4A00E0"/>
				</linearGradient>
				<path class="st1" d="M78.73039,36.91198c-1.23561,0-2.23759,1.0018-2.23759,2.23758v35.61645H58.59249V55.32431
					c0-6.16962-5.01947-11.18875-11.18875-11.18875s-11.18875,5.01946-11.18875,11.18875v19.44188H18.3145V39.14973
					c0-1.23577-1.00198-2.23758-2.23758-2.23758s-2.23758,1.00181-2.23758,2.23758v37.8542
					c0,1.23578,1.00198,2.23758,2.23758,2.23758h22.37565c1.17673,0,2.13969-0.90913,2.22884-2.06332
					c0.00538-0.05231,0.00875-0.1095,0.00875-0.17426V55.32447c0-3.70194,3.01164-6.71358,6.71359-6.71358
					c3.70194,0,6.71358,3.01181,6.71358,6.71358v21.67947c0,0.06441,0.00336,0.1206,0.00875,0.17223
					c0.08813,1.15504,1.05143,2.06534,2.22884,2.06534h22.37565c1.23577,0,2.23759-1.0018,2.23759-2.23758v-37.8542
					C80.96797,37.91379,79.96616,36.91198,78.73039,36.91198z"/>
			</g>
		</g>
	</g>
</g>
</svg>
