<?xml version="1.0" encoding="utf-8"?>
<!-- Generator: Adobe Illustrator 22.0.0, SVG Export Plug-In . SVG Version: 6.00 Build 0)  -->
<svg version="1.1" id="Layer_1" xmlns="http://www.w3.org/2000/svg" xmlns:xlink="http://www.w3.org/1999/xlink" x="0px" y="0px"
	 viewBox="0 0 92.6 89.9" style="enable-background:new 0 0 92.6 89.9;" xml:space="preserve">
<style type="text/css">
	.st0{fill:url(#SVGID_1_);}
	.st1{fill:url(#SVGID_2_);}
</style>
<g>
	<g>
		<g>
			<linearGradient id="SVGID_1_" gradientUnits="userSpaceOnUse" x1="561.0416" y1="92.4876" x2="650.3642" y2="92.4876">
				<stop  offset="0" style="stop-color:#8E2DE2"/>
				<stop  offset="1" style="stop-color:#4A00E0"/>
			</linearGradient>
			<path class="st0" d="M645.7,87.1l-7.2-3.3l-6.3-10.1c-1.8-2.9-5.1-4.7-8.5-4.7h-27c-3.1,0-6.1,1.4-8,3.9l-8.2,10.7l-13.6,3.7
				c-3.5,1-5.9,4.1-5.9,7.7v5.2c0,4.4,3.5,8.1,7.9,8.1h1.2c1.4,5.4,7,8.7,12.4,7.3c3.6-0.9,6.4-3.7,7.3-7.3h30.8
				c1.4,5.4,7,8.7,12.4,7.3c3.6-0.9,6.4-3.7,7.3-7.3h2.2c4.4,0,7.9-3.6,7.9-8.1v-5.9C650.4,91.2,648.6,88.4,645.7,87.1z M580,112.3
				c-3.6,0-6.5-2.9-6.5-6.5c0-3.6,2.9-6.5,6.5-6.5c3.6,0,6.5,2.9,6.5,6.5C586.5,109.3,583.6,112.3,580,112.3z M630.4,112.3
				c-3.6,0-6.5-2.9-6.5-6.5c0-3.6,2.9-6.5,6.5-6.5c3.6,0,6.5,2.9,6.5,6.5C636.9,109.3,634,112.3,630.4,112.3z M642.4,104.7h-1.9
				c-0.6-5.6-5.6-9.6-11.2-9c-4.7,0.5-8.5,4.3-9,9h-30.2c-0.6-5.6-5.6-9.6-11.2-9c-4.7,0.5-8.5,4.3-9,9h-0.9c-2.4,0-4.3-2-4.3-4.4
				v-5.2c0-2,1.3-3.7,3.2-4.2l14.3-3.9c0.4-0.1,0.7-0.3,1-0.7l8.5-11.2c1.2-1.6,3.1-2.5,5.1-2.5h27c2.2,0,4.3,1.1,5.4,3l6.6,10.6
				c0.2,0.3,0.5,0.5,0.8,0.7l7.7,3.5c1.5,0.7,2.5,2.3,2.5,4v5.9h0C646.7,102.7,644.8,104.7,642.4,104.7z"/>
		</g>
	</g>
</g>
<g>
	<g>
		<linearGradient id="SVGID_2_" gradientUnits="userSpaceOnUse" x1="4" y1="45.2394" x2="88.0307" y2="45.2394">
			<stop  offset="0" style="stop-color:#8E2DE2"/>
			<stop  offset="1" style="stop-color:#4A00E0"/>
		</linearGradient>
		<path class="st1" d="M88,36.2c0-1.2-0.9-2-2.8-2.3l-25.3-3.7l-11.4-23C47.9,5.9,47,5.2,46,5.2c-1,0-1.8,0.7-2.5,2.1l-11.4,23
			L6.8,33.9C4.9,34.2,4,35,4,36.2c0,0.7,0.4,1.5,1.3,2.4l18.4,17.9l-4.3,25.2c-0.1,0.5-0.1,0.8-0.1,1c0,0.7,0.2,1.3,0.5,1.8
			c0.4,0.5,0.9,0.7,1.6,0.7c0.6,0,1.3-0.2,2-0.6L46,72.8l22.7,11.9c0.7,0.4,1.4,0.6,2,0.6c0.7,0,1.2-0.2,1.5-0.7
			c0.4-0.5,0.5-1.1,0.5-1.8c0-0.4,0-0.8-0.1-1l-4.3-25.2l18.3-17.9C87.6,37.8,88,37,88,36.2z"/>
	</g>
</g>
</svg>
