<?xml version="1.0" encoding="utf-8"?>
<!-- Generator: Adobe Illustrator 22.0.0, SVG Export Plug-In . SVG Version: 6.00 Build 0)  -->
<svg version="1.1" id="Layer_1" xmlns="http://www.w3.org/2000/svg" xmlns:xlink="http://www.w3.org/1999/xlink" x="0px" y="0px"
	 viewBox="0 0 92.6 81.9" style="enable-background:new 0 0 92.6 81.9;" xml:space="preserve">
<style type="text/css">
	.st0{fill:url(#SVGID_1_);}
	.st1{fill:url(#SVGID_2_);}
	.st2{fill:url(#SVGID_3_);}
	.st3{fill:url(#SVGID_4_);}
	.st4{fill:url(#SVGID_5_);}
</style>
<g>
	<g>
		<g>
			<linearGradient id="SVGID_1_" gradientUnits="userSpaceOnUse" x1="123.4999" y1="-101.7906" x2="212.8226" y2="-101.7906">
				<stop  offset="0" style="stop-color:#8E2DE2"/>
				<stop  offset="1" style="stop-color:#4A00E0"/>
			</linearGradient>
			<path class="st0" d="M208.2-107.2l-7.2-3.3l-6.3-10.1c-1.8-2.9-5.1-4.7-8.5-4.7h-27c-3.1,0-6.1,1.4-8,3.9l-8.2,10.7l-13.6,3.7
				c-3.5,1-5.9,4.1-5.9,7.7v5.2c0,4.4,3.5,8.1,7.9,8.1h1.2c1.4,5.4,7,8.7,12.4,7.3c3.6-0.9,6.4-3.7,7.3-7.3H183
				c1.4,5.4,7,8.7,12.4,7.3c3.6-0.9,6.4-3.7,7.3-7.3h2.2c4.4,0,7.9-3.6,7.9-8.1v-5.9C212.8-103.1,211-105.9,208.2-107.2z M142.4-82
				c-3.6,0-6.5-2.9-6.5-6.5c0-3.6,2.9-6.5,6.5-6.5s6.5,2.9,6.5,6.5C148.9-84.9,146-82,142.4-82z M192.9-82c-3.6,0-6.5-2.9-6.5-6.5
				c0-3.6,2.9-6.5,6.5-6.5s6.5,2.9,6.5,6.5C199.4-84.9,196.5-82,192.9-82z M204.9-89.6H203c-0.6-5.6-5.6-9.6-11.2-9
				c-4.7,0.5-8.5,4.3-9,9h-30.2c-0.6-5.6-5.6-9.6-11.2-9c-4.7,0.5-8.5,4.3-9,9h-0.9c-2.4,0-4.3-2-4.3-4.4v-5.2c0-2,1.3-3.7,3.2-4.2
				l14.3-3.9c0.4-0.1,0.7-0.3,1-0.7l8.5-11.2c1.2-1.6,3.1-2.5,5.1-2.5h27c2.2,0,4.3,1.1,5.4,3l6.6,10.6c0.2,0.3,0.5,0.5,0.8,0.7
				l7.7,3.5c1.5,0.7,2.5,2.3,2.5,4v5.9h0C209.2-91.6,207.3-89.6,204.9-89.6z"/>
		</g>
	</g>
</g>
<g>
	<g>
		<linearGradient id="SVGID_2_" gradientUnits="userSpaceOnUse" x1="0.5617" y1="46.7676" x2="91.8765" y2="46.7676">
			<stop  offset="0" style="stop-color:#8E2DE2"/>
			<stop  offset="1" style="stop-color:#4A00E0"/>
		</linearGradient>
		<path class="st1" d="M86.4,6.1H6.1c-3,0-5.5,2.5-5.5,5.5V67c0,3,2.5,5.5,5.5,5.5h27.5v4c0,3.7-3,6.7-6.7,6.7h-6.1
			c-1.2,0-2.1,0.9-2.1,2.1c0,1.2,0.9,2.1,2.1,2.1h50.7c1.2,0,2.1-0.9,2.1-2.1c0-1.2-0.9-2.1-2.1-2.1h-6.1c-3.7,0-6.7-3-6.7-6.7v-4
			h27.5c3,0,5.5-2.5,5.5-5.5V11.6C91.9,8.6,89.4,6.1,86.4,6.1z M35.5,83.2c1.4-1.8,2.3-4.2,2.3-6.7v-4h16.8v4c0,2.5,0.9,4.8,2.3,6.7
			H35.5z M87.7,67c0,0.7-0.6,1.3-1.3,1.3H6.1c-0.7,0-1.3-0.6-1.3-1.3V56h82.9V67z M87.7,51.8L87.7,51.8H4.8V11.6
			c0-0.7,0.6-1.3,1.3-1.3h80.3c0.7,0,1.3,0.6,1.3,1.3V51.8z"/>
	</g>
	<g>
		<linearGradient id="SVGID_3_" gradientUnits="userSpaceOnUse" x1="43.948" y1="62.1603" x2="48.4917" y2="62.1603">
			<stop  offset="0" style="stop-color:#8E2DE2"/>
			<stop  offset="1" style="stop-color:#4A00E0"/>
		</linearGradient>
		<path class="st2" d="M46.2,64.4c1.3,0,2.3-1,2.3-2.3s-1-2.3-2.3-2.3s-2.3,1-2.3,2.3S45,64.4,46.2,64.4z"/>
	</g>
	<g>
		<linearGradient id="SVGID_4_" gradientUnits="userSpaceOnUse" x1="31.3582" y1="29.5227" x2="50.4453" y2="29.5227">
			<stop  offset="0" style="stop-color:#8E2DE2"/>
			<stop  offset="1" style="stop-color:#4A00E0"/>
		</linearGradient>
		<path class="st3" d="M49.8,20.6c-0.8-0.8-2.2-0.8-3,0L32,35.5c-0.8,0.8-0.8,2.2,0,3c0.4,0.4,0.9,0.6,1.5,0.6
			c0.5,0,1.1-0.2,1.5-0.6l14.9-14.9C50.7,22.8,50.7,21.4,49.8,20.6z"/>
	</g>
	<g>
		<linearGradient id="SVGID_5_" gradientUnits="userSpaceOnUse" x1="49.1263" y1="33.6685" x2="59.2629" y2="33.6685">
			<stop  offset="0" style="stop-color:#8E2DE2"/>
			<stop  offset="1" style="stop-color:#4A00E0"/>
		</linearGradient>
		<path class="st4" d="M55.7,29.2l-5.9,5.9c-0.8,0.8-0.8,2.2,0,3c0.4,0.4,0.9,0.6,1.5,0.6c0.5,0,1.1-0.2,1.5-0.6l5.9-5.9
			c0.8-0.8,0.8-2.2,0-3C57.8,28.4,56.5,28.4,55.7,29.2z"/>
	</g>
</g>
</svg>
