<?xml version="1.0" encoding="utf-8"?>
<!-- Generator: Adobe Illustrator 22.0.0, SVG Export Plug-In . SVG Version: 6.00 Build 0)  -->
<svg version="1.1" id="Layer_1" xmlns="http://www.w3.org/2000/svg" xmlns:xlink="http://www.w3.org/1999/xlink" x="0px" y="0px"
	 viewBox="0 0 92.6 81.9" style="enable-background:new 0 0 92.6 81.9;" xml:space="preserve">
<style type="text/css">
	.st0{fill:url(#SVGID_1_);}
</style>
<g>
	<g>
		<g>
			<linearGradient id="SVGID_1_" gradientUnits="userSpaceOnUse" x1="2" y1="40.8144" x2="91.3226" y2="40.8144">
				<stop  offset="0" style="stop-color:#8E2DE2"/>
				<stop  offset="1" style="stop-color:#4A00E0"/>
			</linearGradient>
			<path class="st0" d="M86.7,35.4l-7.2-3.3L73.2,22c-1.8-2.9-5.1-4.7-8.5-4.7h-27c-3.1,0-6.1,1.4-8,3.9L21.5,32L7.9,35.7
				c-3.5,1-5.9,4.1-5.9,7.7v5.2c0,4.4,3.5,8.1,7.9,8.1h1.2c1.4,5.4,7,8.7,12.4,7.3c3.6-0.9,6.4-3.7,7.3-7.3h30.8
				c1.4,5.4,7,8.7,12.4,7.3c3.6-0.9,6.4-3.7,7.3-7.3h2.2c4.4,0,7.9-3.6,7.9-8.1v-5.9C91.3,39.6,89.5,36.7,86.7,35.4z M20.9,60.6
				c-3.6,0-6.5-2.9-6.5-6.5c0-3.6,2.9-6.5,6.5-6.5s6.5,2.9,6.5,6.5C27.4,57.7,24.5,60.6,20.9,60.6z M71.4,60.6
				c-3.6,0-6.5-2.9-6.5-6.5c0-3.6,2.9-6.5,6.5-6.5c3.6,0,6.5,2.9,6.5,6.5C77.9,57.7,75,60.6,71.4,60.6z M83.4,53h-1.9
				c-0.6-5.6-5.6-9.6-11.2-9c-4.7,0.5-8.5,4.3-9,9H31c-0.6-5.6-5.6-9.6-11.2-9c-4.7,0.5-8.5,4.3-9,9H9.9c-2.4,0-4.3-2-4.3-4.4v-5.2
				c0-2,1.3-3.7,3.2-4.2l14.3-3.9c0.4-0.1,0.7-0.3,1-0.7l8.5-11.2c1.2-1.6,3.1-2.5,5.1-2.5h27c2.2,0,4.3,1.1,5.4,3l6.6,10.6
				c0.2,0.3,0.5,0.5,0.8,0.7l7.7,3.5c1.5,0.7,2.5,2.3,2.5,4v5.9h0C87.7,51,85.8,53,83.4,53z"/>
		</g>
	</g>
</g>
</svg>
